<svg xmlns="http://www.w3.org/2000/svg" data-v-fde0c5aa="" class="iconLeft" viewBox="40 137.54 220 24.92"><!----><defs data-v-fde0c5aa=""><!----></defs><defs data-v-fde0c5aa=""><!----></defs><g data-v-fde0c5aa="" id="130c0d9e-162b-4700-89ee-cf28f81f59cd" fill="#AFAFAF" transform="matrix(1.247488071112479,0,0,1.247488071112479,77.77941128996798,139.8080217689866)"><path d="M8.00 10.63L8.00 10.63L8.00 10.63Q8.62 9.60 8.74 8.61L8.74 8.61L8.74 8.61Q8.74 1.50 8.74 1.51L8.74 1.51L7.79 1.51L7.79 5.69L7.79 5.69Q7.18 4.95 6.43 4.58L6.43 4.58L6.43 4.58Q5.67 4.22 4.78 4.22L4.78 4.22L4.78 4.22Q3.19 4.22 2.06 5.37L2.06 5.37L2.06 5.37Q0.94 6.53 0.94 8.18L0.94 8.18L0.94 8.18Q0.94 9.80 2.07 10.94L2.07 10.94L2.07 10.94Q3.21 12.09 4.81 12.09L4.81 12.09L4.81 12.09Q5.72 12.09 6.52 11.74L6.52 11.74L6.52 11.74Q7.33 11.39 8.00 10.63ZM4.89 11.17L4.89 11.17L4.89 11.17Q4.07 11.17 3.39 10.77L3.39 10.77L3.39 10.77Q2.71 10.37 2.31 9.66L2.31 9.66L2.31 9.66Q1.91 8.95 1.91 8.14L1.91 8.14L1.91 8.14Q1.91 7.35 2.31 6.62L2.31 6.62L2.31 6.62Q2.72 5.89 3.41 5.49L3.41 5.49L3.41 5.49Q4.09 5.09 4.87 5.09L4.87 5.09L4.87 5.09Q5.67 5.09 6.38 5.49L6.38 5.49L6.38 5.49Q7.09 5.89 7.47 6.58L7.47 6.58L7.47 6.58Q7.85 7.27 7.85 8.11L7.85 8.11L7.85 8.11Q7.85 9.42 6.99 10.29L6.99 10.29L6.99 10.29Q6.13 11.17 4.89 11.17ZM14.26 4.22L14.26 4.22L14.26 4.22Q15.99 4.22 17.13 5.47L17.13 5.47L17.13 5.47Q18.16 6.62 18.16 8.18L18.16 8.18L18.16 8.18Q18.16 9.75 17.07 10.92L17.07 10.92L17.07 10.92Q15.98 12.09 14.26 12.09L14.26 12.09L14.26 12.09Q12.54 12.09 11.45 10.92L11.45 10.92L11.45 10.92Q10.36 9.75 10.36 8.18L10.36 8.18L10.36 8.18Q10.36 6.62 11.39 5.48L11.39 5.48L11.39 5.48Q12.53 4.22 14.26 4.22ZM14.26 5.16L14.26 5.16L14.26 5.16Q13.06 5.16 12.20 6.05L12.20 6.05L12.20 6.05Q11.34 6.94 11.34 8.20L11.34 8.20L11.34 8.20Q11.34 9.01 11.73 9.72L11.73 9.72L11.73 9.72Q12.13 10.42 12.80 10.80L12.80 10.80L12.80 10.80Q13.47 11.18 14.26 11.18L14.26 11.18L14.26 11.18Q15.07 11.18 15.73 10.80L15.73 10.80L15.73 10.80Q16.40 10.42 16.79 9.72L16.79 9.72L16.79 9.72Q17.18 9.01 17.18 8.20L17.18 8.20L17.18 8.20Q17.18 6.94 16.32 6.05L16.32 6.05L16.32 6.05Q15.46 5.16 14.26 5.16ZM22.64 11.03L22.64 11.03L22.64 11.03Q21.93 11.41 21.25 11.09L21.25 11.09L21.25 11.09Q20.41 10.45 20.45 9.28L20.45 9.28L20.45 6.10L22.23 6.10L22.23 5.28L20.45 5.28L20.45 1.65L19.48 1.65L19.48 9.44L19.48 9.44Q19.46 10.26 19.85 10.94L19.85 10.94L19.85 10.94Q20.49 12.03 21.60 12.09L21.60 12.09L21.60 12.09Q22.19 12.11 22.94 11.83L22.94 11.83L22.94 11.83Q22.83 11.54 22.64 11.03ZM24.47 12.09L24.47 9.24L24.46 8.44L24.46 8.44Q24.44 7.85 24.51 7.44L24.51 7.44L24.51 7.44Q24.66 6.15 25.16 5.55L25.16 5.55L25.16 5.55Q25.66 5.02 26.17 4.74L26.17 4.74L26.17 4.74Q27.02 4.38 28.10 4.40L28.10 4.40L28.10 4.40Q28.95 4.40 29.67 4.82L29.67 4.82L29.67 4.82Q30.39 5.25 30.70 5.97L30.70 5.97L30.70 5.97Q31.01 6.69 31.01 8.23L31.01 8.23L31.01 12.09L30.05 12.09L30.05 8.51L30.05 8.51Q30.05 7.21 29.94 6.77L29.94 6.77L29.94 6.77Q29.77 6.03 29.26 5.72L29.26 5.72L29.26 5.72Q28.76 5.41 27.77 5.41L27.77 5.41L27.77 5.41Q26.89 5.41 26.21 5.91L26.21 5.91L26.21 5.91Q25.53 6.42 25.57 7.29L25.57 7.29L25.57 7.29Q25.44 7.85 25.44 9.34L25.44 9.34L25.44 12.09L24.47 12.09ZM39.38 9.42L39.38 9.42L40.18 9.85L40.18 9.85Q39.79 10.64 39.27 11.12L39.27 11.12L39.27 11.12Q38.74 11.59 38.08 11.84L38.08 11.84L38.08 11.84Q37.43 12.09 36.60 12.09L36.60 12.09L36.60 12.09Q34.77 12.09 33.74 10.89L33.74 10.89L33.74 10.89Q32.70 9.69 32.70 8.18L32.70 8.18L32.70 8.18Q32.70 6.75 33.58 5.64L33.58 5.64L33.58 5.64Q34.69 4.22 36.55 4.22L36.55 4.22L36.55 4.22Q38.46 4.22 39.61 5.67L39.61 5.67L39.61 5.67Q40.42 6.70 40.43 8.23L40.43 8.23L33.69 8.23L33.69 8.23Q33.72 9.54 34.53 10.38L34.53 10.38L34.53 10.38Q35.33 11.22 36.52 11.22L36.52 11.22L36.52 11.22Q37.09 11.22 37.63 11.02L37.63 11.02L37.63 11.02Q38.17 10.81 38.55 10.49L38.55 10.49L38.55 10.49Q38.93 10.16 39.38 9.42ZM33.80 7.40L39.38 7.40L39.38 7.40Q39.18 6.63 38.81 6.17L38.81 6.17L38.81 6.17Q38.45 5.71 37.84 5.42L37.84 5.42L37.84 5.42Q37.23 5.14 36.56 5.14L36.56 5.14L36.56 5.14Q35.46 5.14 34.67 5.85L34.67 5.85L34.67 5.85Q34.09 6.37 33.80 7.40L33.80 7.40ZM44.93 11.03L44.93 11.03L44.93 11.03Q44.21 11.41 43.53 11.09L43.53 11.09L43.53 11.09Q42.70 10.45 42.74 9.28L42.74 9.28L42.74 6.10L44.52 6.10L44.52 5.28L42.73 5.28L42.73 1.65L41.76 1.65L41.76 9.44L41.76 9.44Q41.75 10.26 42.14 10.94L42.14 10.94L42.14 10.94Q42.78 12.03 43.89 12.09L43.89 12.09L43.89 12.09Q44.47 12.11 45.23 11.83L45.23 11.83L45.23 11.83Q45.11 11.54 44.93 11.03ZM52.72 12.10L49.85 1.96L50.89 1.96L52.96 9.27L55.86 1.96L56.08 1.96L58.95 9.27L61.04 1.96L62.08 1.96L59.17 12.10L58.97 12.10L55.97 4.43L52.90 12.10L52.72 12.10ZM69.34 9.42L69.34 9.42L70.15 9.85L70.15 9.85Q69.76 10.64 69.23 11.12L69.23 11.12L69.23 11.12Q68.71 11.59 68.05 11.84L68.05 11.84L68.05 11.84Q67.40 12.09 66.57 12.09L66.57 12.09L66.57 12.09Q64.74 12.09 63.70 10.89L63.70 10.89L63.70 10.89Q62.67 9.69 62.67 8.18L62.67 8.18L62.67 8.18Q62.67 6.75 63.55 5.64L63.55 5.64L63.55 5.64Q64.65 4.22 66.52 4.22L66.52 4.22L66.52 4.22Q68.43 4.22 69.58 5.67L69.58 5.67L69.58 5.67Q70.39 6.70 70.40 8.23L70.40 8.23L63.66 8.23L63.66 8.23Q63.69 9.54 64.50 10.38L64.50 10.38L64.50 10.38Q65.30 11.22 66.49 11.22L66.49 11.22L66.49 11.22Q67.06 11.22 67.60 11.02L67.60 11.02L67.60 11.02Q68.14 10.81 68.52 10.49L68.52 10.49L68.52 10.49Q68.90 10.16 69.34 9.42ZM63.77 7.40L69.34 7.40L69.34 7.40Q69.15 6.63 68.78 6.17L68.78 6.17L68.78 6.17Q68.41 5.71 67.81 5.42L67.81 5.42L67.81 5.42Q67.20 5.14 66.53 5.14L66.53 5.14L66.53 5.14Q65.43 5.14 64.63 5.85L64.63 5.85L64.63 5.85Q64.06 6.37 63.77 7.40L63.77 7.40ZM72.80 10.63L72.80 10.63L72.80 10.63Q72.18 9.60 72.06 8.61L72.06 8.61L72.06 8.61Q72.06 1.50 72.06 1.51L72.06 1.51L73.01 1.51L73.01 5.69L73.01 5.69Q73.62 4.95 74.38 4.58L74.38 4.58L74.38 4.58Q75.13 4.22 76.02 4.22L76.02 4.22L76.02 4.22Q77.61 4.22 78.74 5.37L78.74 5.37L78.74 5.37Q79.86 6.53 79.86 8.18L79.86 8.18L79.86 8.18Q79.86 9.80 78.73 10.94L78.73 10.94L78.73 10.94Q77.59 12.09 76.00 12.09L76.00 12.09L76.00 12.09Q75.08 12.09 74.28 11.74L74.28 11.74L74.28 11.74Q73.47 11.39 72.80 10.63ZM75.91 11.17L75.91 11.17L75.91 11.17Q76.73 11.17 77.41 10.77L77.41 10.77L77.41 10.77Q78.09 10.37 78.49 9.66L78.49 9.66L78.49 9.66Q78.89 8.95 78.89 8.14L78.89 8.14L78.89 8.14Q78.89 7.35 78.49 6.62L78.49 6.62L78.49 6.62Q78.08 5.89 77.39 5.49L77.39 5.49L77.39 5.49Q76.71 5.09 75.93 5.09L75.93 5.09L75.93 5.09Q75.13 5.09 74.42 5.49L74.42 5.49L74.42 5.49Q73.71 5.89 73.33 6.58L73.33 6.58L73.33 6.58Q72.95 7.27 72.95 8.11L72.95 8.11L72.95 8.11Q72.95 9.42 73.81 10.29L73.81 10.29L73.81 10.29Q74.67 11.17 75.91 11.17ZM86.72 2.92L84.46 2.92L84.46 1.93L90.02 1.93L90.02 2.92L87.75 2.92L87.75 12.07L86.72 12.07L86.72 2.92ZM96.34 9.42L96.34 9.42L97.15 9.85L97.15 9.85Q96.76 10.64 96.23 11.12L96.23 11.12L96.23 11.12Q95.70 11.59 95.05 11.84L95.05 11.84L95.05 11.84Q94.39 12.09 93.56 12.09L93.56 12.09L93.56 12.09Q91.73 12.09 90.70 10.89L90.70 10.89L90.70 10.89Q89.67 9.69 89.67 8.18L89.67 8.18L89.67 8.18Q89.67 6.75 90.54 5.64L90.54 5.64L90.54 5.64Q91.65 4.22 93.52 4.22L93.52 4.22L93.52 4.22Q95.42 4.22 96.57 5.67L96.57 5.67L96.57 5.67Q97.38 6.70 97.39 8.23L97.39 8.23L90.66 8.23L90.66 8.23Q90.69 9.54 91.49 10.38L91.49 10.38L91.49 10.38Q92.30 11.22 93.48 11.22L93.48 11.22L93.48 11.22Q94.06 11.22 94.60 11.02L94.60 11.02L94.60 11.02Q95.14 10.81 95.52 10.49L95.52 10.49L95.52 10.49Q95.89 10.16 96.34 9.42ZM90.76 7.40L96.34 7.40L96.34 7.40Q96.15 6.63 95.78 6.17L95.78 6.17L95.78 6.17Q95.41 5.71 94.80 5.42L94.80 5.42L94.80 5.42Q94.19 5.14 93.52 5.14L93.52 5.14L93.52 5.14Q92.42 5.14 91.63 5.85L91.63 5.85L91.63 5.85Q91.05 6.37 90.76 7.40L90.76 7.40ZM99.18 12.09L99.18 9.18L99.18 7.98L99.18 7.98Q99.30 6.45 99.82 5.74L99.82 5.74L99.82 5.74Q100.25 5.09 100.95 4.71L100.95 4.71L100.95 4.71Q101.40 4.42 102.25 4.40L102.25 4.40L102.25 4.40Q102.80 4.40 103.36 4.60L103.36 4.60L103.36 4.60Q103.92 4.81 104.23 5.15L104.23 5.15L104.23 5.15Q104.54 5.49 104.85 6.17L104.85 6.17L104.85 6.17Q105.02 5.74 105.57 5.15L105.57 5.15L105.57 5.15Q105.83 4.92 106.26 4.70L106.26 4.70L106.26 4.70Q106.54 4.52 107.59 4.40L107.59 4.40L107.59 4.40Q108.37 4.40 109.09 4.79L109.09 4.79L109.09 4.79Q109.81 5.17 110.10 5.88L110.10 5.88L110.10 5.88Q110.39 6.59 110.39 7.99L110.39 7.99L110.39 12.09L109.40 12.09L109.40 7.99L109.40 7.99Q109.40 6.79 109.23 6.34L109.23 6.34L109.23 6.34Q109.06 5.89 108.64 5.61L108.64 5.61L108.64 5.61Q108.23 5.33 107.64 5.33L107.64 5.33L107.64 5.33Q106.53 5.41 105.75 6.41L105.75 6.41L105.75 6.41Q105.44 6.83 105.28 8.29L105.28 8.29L105.28 12.09L104.32 12.09L104.32 8.24L104.32 8.24Q104.32 6.89 104.02 6.40L104.02 6.40L104.02 6.40Q103.71 5.91 103.30 5.62L103.30 5.62L103.30 5.62Q102.88 5.33 102.26 5.33L102.26 5.33L102.26 5.33Q101.59 5.33 101.11 5.67L101.11 5.67L101.11 5.67Q100.63 6.02 100.35 6.70L100.35 6.70L100.35 6.70Q100.08 7.38 100.13 8.91L100.13 8.91L100.13 12.09L99.18 12.09ZM113.01 5.71L113.01 5.71L113.01 5.71Q112.40 6.73 112.27 7.72L112.27 7.72L112.27 7.72Q112.27 14.84 112.27 14.83L112.27 14.83L113.23 14.83L113.23 10.64L113.23 10.64Q113.84 11.39 114.59 11.75L114.59 11.75L114.59 11.75Q115.34 12.12 116.24 12.12L116.24 12.12L116.24 12.12Q117.82 12.12 118.95 10.96L118.95 10.96L118.95 10.96Q120.08 9.81 120.08 8.16L120.08 8.16L120.08 8.16Q120.08 6.54 118.95 5.39L118.95 5.39L118.95 5.39Q117.81 4.25 116.21 4.25L116.21 4.25L116.21 4.25Q115.29 4.25 114.49 4.60L114.49 4.60L114.49 4.60Q113.69 4.95 113.01 5.71ZM116.13 5.17L116.13 5.17L116.13 5.17Q116.94 5.17 117.62 5.57L117.62 5.57L117.62 5.57Q118.30 5.97 118.71 6.68L118.71 6.68L118.71 6.68Q119.11 7.39 119.11 8.20L119.11 8.20L119.11 8.20Q119.11 8.99 118.70 9.72L118.70 9.72L118.70 9.72Q118.30 10.45 117.61 10.85L117.61 10.85L117.61 10.85Q116.92 11.25 116.14 11.25L116.14 11.25L116.14 11.25Q115.35 11.25 114.64 10.85L114.64 10.85L114.64 10.85Q113.93 10.45 113.54 9.76L113.54 9.76L113.54 9.76Q113.16 9.07 113.16 8.22L113.16 8.22L113.16 8.22Q113.16 6.92 114.02 6.04L114.02 6.04L114.02 6.04Q114.88 5.17 116.13 5.17ZM121.86 12.09L121.86 1.69L122.83 1.69L122.83 12.09L121.86 12.09ZM128.37 4.22L128.37 4.22L128.37 4.22Q130.10 4.22 131.24 5.47L131.24 5.47L131.24 5.47Q132.30 6.61 132.30 8.18L132.30 8.18L132.30 8.18Q132.31 12.07 132.30 12.13L132.30 12.13L132.30 12.13Q131.64 12.13 131.28 12.13L131.28 12.13L131.28 12.13Q131.28 12.08 131.28 10.42L131.28 10.42L131.28 10.42Q130.48 11.92 128.37 12.09L128.37 12.09L128.37 12.09Q126.65 12.09 125.56 10.92L125.56 10.92L125.56 10.92Q124.47 9.75 124.47 8.18L124.47 8.18L124.47 8.18Q124.47 6.62 125.50 5.48L125.50 5.48L125.50 5.48Q126.64 4.22 128.37 4.22ZM128.37 5.16L128.37 5.16L128.37 5.16Q127.18 5.16 126.31 6.05L126.31 6.05L126.31 6.05Q125.45 6.94 125.45 8.20L125.45 8.20L125.45 8.20Q125.45 9.01 125.89 9.76L125.89 9.76L125.89 9.76Q126.33 10.51 127.39 11.03L127.39 11.03L127.39 11.03Q130.03 11.62 131.14 8.63L131.14 8.63L131.14 8.63Q131.20 7.68 130.94 6.80L130.94 6.80L130.94 6.80Q130.74 6.41 130.41 6.05L130.41 6.05L130.41 6.05Q129.57 5.16 128.37 5.16ZM136.87 11.03L136.87 11.03L136.87 11.03Q136.16 11.41 135.47 11.09L135.47 11.09L135.47 11.09Q134.64 10.45 134.68 9.28L134.68 9.28L134.68 6.10L136.46 6.10L136.46 5.28L134.67 5.28L134.67 1.65L133.70 1.65L133.70 9.44L133.70 9.44Q133.69 10.26 134.08 10.94L134.08 10.94L134.08 10.94Q134.72 12.03 135.83 12.09L135.83 12.09L135.83 12.09Q136.42 12.11 137.17 11.83L137.17 11.83L137.17 11.83Q137.05 11.54 136.87 11.03ZM145.02 9.42L145.02 9.42L145.82 9.85L145.82 9.85Q145.43 10.64 144.91 11.12L144.91 11.12L144.91 11.12Q144.38 11.59 143.73 11.84L143.73 11.84L143.73 11.84Q143.07 12.09 142.24 12.09L142.24 12.09L142.24 12.09Q140.41 12.09 139.38 10.89L139.38 10.89L139.38 10.89Q138.35 9.69 138.35 8.18L138.35 8.18L138.35 8.18Q138.35 6.75 139.22 5.64L139.22 5.64L139.22 5.64Q140.33 4.22 142.19 4.22L142.19 4.22L142.19 4.22Q144.10 4.22 145.25 5.67L145.25 5.67L145.25 5.67Q146.06 6.70 146.07 8.23L146.07 8.23L139.34 8.23L139.34 8.23Q139.36 9.54 140.17 10.38L140.17 10.38L140.17 10.38Q140.98 11.22 142.16 11.22L142.16 11.22L142.16 11.22Q142.73 11.22 143.27 11.02L143.27 11.02L143.27 11.02Q143.81 10.81 144.19 10.49L144.19 10.49L144.19 10.49Q144.57 10.16 145.02 9.42ZM139.44 7.40L145.02 7.40L145.02 7.40Q144.83 6.63 144.46 6.17L144.46 6.17L144.46 6.17Q144.09 5.71 143.48 5.42L143.48 5.42L143.48 5.42Q142.87 5.14 142.20 5.14L142.20 5.14L142.20 5.14Q141.10 5.14 140.31 5.85L140.31 5.85L140.31 5.85Q139.73 6.37 139.44 7.40L139.44 7.40Z"/></g><defs data-v-fde0c5aa=""><!----></defs><g data-v-fde0c5aa="" id="3c624508-b183-40a6-987b-73185c7cfb9f" stroke="none" fill="#6B4CB7" transform="matrix(0.3012190151089402,0,0,0.3012190151089402,37.895086143935444,135.08162395457958)"><path d="M59.5 90.9c-2.3 0-4.6-.4-6.9-1.1L21.2 79C10.9 75.5 5 64.9 7.6 54.3l7.2-30c1.7-6.9 6.7-12.5 13.4-14.9s14.1-1.3 19.8 3l36.9 28.2c4.8 3.7 7.8 9.3 8.2 15.3s-1.9 12-6.2 16.3L74.2 84.8c-4 4-9.3 6.1-14.7 6.1zM35.2 12.1c-1.9 0-3.8.3-5.7 1-5.4 1.9-9.5 6.4-10.8 12.1l-7.2 30c-2.1 8.6 2.7 17.2 11 20.1L53.9 86c6.2 2.1 12.9.6 17.5-4l12.7-12.6c3.5-3.5 5.3-8.3 5-13.2s-2.7-9.4-6.6-12.4l-37-28.2c-3-2.3-6.6-3.5-10.3-3.5z"/></g><!----></svg>