<svg xmlns="http://www.w3.org/2000/svg" data-v-fde0c5aa="" class="iconLeftSlogan" viewBox="40 120.29 44.01 59.41"><!----><defs data-v-fde0c5aa=""><!----></defs><defs data-v-fde0c5aa=""><!----></defs><defs data-v-fde0c5aa=""><linearGradient data-v-fde0c5aa="" gradientTransform="rotate(25)" id="fb651232-381a-47e3-9408-a474192560ed" x1="0%" y1="0%" x2="100%" y2="0%"><stop data-v-fde0c5aa="" offset="0%" stop-color="#FCFBFF" stop-opacity="1"/><stop data-v-fde0c5aa="" offset="100%" stop-color="#00486E" stop-opacity="1"/></linearGradient></defs><g data-v-fde0c5aa="" id="5839136c-bcdb-4688-b766-e30bff905c9c" stroke="none" fill="url(#fb651232-381a-47e3-9408-a474192560ed)" transform="matrix(0.5941247675135897,0,0,0.5941247675135897,32.30014299035982,120.29376162432052)"><path d="M50 0C24.563 0 12.96 50.003 12.96 66.604 12.959 85.05 29.541 100 50 100s37.042-14.95 37.042-33.396C87.041 52.016 74.159 0 50 0zM39.488 34.323c-3.556 0-6.437-1.577-6.437-3.521s2.881-3.52 6.437-3.52c3.561 0 6.446 1.576 6.446 3.52s-2.886 3.521-6.446 3.521zm21.025 0c-3.561 0-6.447-1.577-6.447-3.521s2.887-3.52 6.447-3.52c3.555 0 6.44 1.576 6.44 3.52s-2.886 3.521-6.44 3.521z"/></g></svg>