<svg xmlns="http://www.w3.org/2000/svg" data-v-fde0c5aa="" class="iconLeft" viewBox="40 129.38 220 41.24"><!----><defs data-v-fde0c5aa=""><!----></defs><defs data-v-fde0c5aa=""><!----></defs><g data-v-fde0c5aa="" id="bc499a9f-2dff-4f74-8df3-fec63e5da7bc" fill="#FFFFFF" transform="matrix(1.983867544831478,0,0,1.983867544831478,81.74951133714427,133.47438279342455)"><path d="M3.88 4.59L3.88 4.59Q5.64 4.59 6.55 5.85L6.55 5.85L6.55 5.85Q6.64 5.95 6.64 6.09L6.64 6.09L6.64 6.09Q6.64 6.29 6.41 6.41L6.41 6.41L6.41 6.41Q6.27 6.47 6.20 6.47L6.20 6.47L6.20 6.47Q5.99 6.47 5.85 6.29L5.85 6.29L5.85 6.29Q5.14 5.38 3.85 5.38L3.85 5.38L3.85 5.38Q3.00 5.38 2.49 5.75L2.49 5.75L2.49 5.75Q1.99 6.12 1.99 6.66L1.99 6.66L1.99 6.66Q1.99 7.22 2.47 7.56L2.47 7.56L2.47 7.56Q2.95 7.90 4.09 8.06L4.09 8.06L4.09 8.06Q5.57 8.27 6.22 8.86L6.22 8.86L6.22 8.86Q6.87 9.44 6.87 10.26L6.87 10.26L6.87 10.26Q6.87 10.91 6.46 11.40L6.46 11.40L6.46 11.40Q6.05 11.89 5.36 12.15L5.36 12.15L5.36 12.15Q4.68 12.42 3.86 12.42L3.86 12.42L3.86 12.42Q3.05 12.42 2.28 12.13L2.28 12.13L2.28 12.13Q1.51 11.84 1.01 11.26L1.01 11.26L1.01 11.26Q0.91 11.14 0.91 11.00L0.91 11.00L0.91 11.00Q0.91 10.81 1.09 10.68L1.09 10.68L1.09 10.68Q1.18 10.61 1.33 10.61L1.33 10.61L1.33 10.61Q1.53 10.61 1.65 10.77L1.65 10.77L1.65 10.77Q2.35 11.62 3.91 11.62L3.91 11.62L3.91 11.62Q5.01 11.62 5.54 11.23L5.54 11.23L5.54 11.23Q6.06 10.84 6.06 10.22L6.06 10.22L6.06 10.22Q6.06 9.11 3.92 8.81L3.92 8.81L3.92 8.81Q2.56 8.61 1.87 8.06L1.87 8.06L1.87 8.06Q1.18 7.52 1.18 6.75L1.18 6.75L1.18 6.75Q1.18 5.73 1.93 5.16L1.93 5.16L1.93 5.16Q2.67 4.59 3.88 4.59L3.88 4.59ZM12.26 4.58L12.26 4.58Q13.29 4.58 14.09 5.00L14.09 5.00L14.09 5.00Q14.90 5.42 15.35 6.22L15.35 6.22L15.35 6.22Q15.81 7.03 15.81 8.15L15.81 8.15L15.81 11.91L15.81 11.91Q15.81 12.10 15.69 12.21L15.69 12.21L15.69 12.21Q15.57 12.33 15.39 12.33L15.39 12.33L15.39 12.33Q15.20 12.33 15.09 12.21L15.09 12.21L15.09 12.21Q14.97 12.10 14.97 11.91L14.97 11.91L14.97 8.15L14.97 8.15Q14.97 6.82 14.22 6.12L14.22 6.12L14.22 6.12Q13.47 5.42 12.26 5.42L12.26 5.42L12.26 5.42Q11.52 5.42 10.91 5.70L10.91 5.70L10.91 5.70Q10.30 5.99 9.95 6.50L9.95 6.50L9.95 6.50Q9.60 7.01 9.60 7.63L9.60 7.63L9.60 11.91L9.60 11.91Q9.60 12.10 9.49 12.21L9.49 12.21L9.49 12.21Q9.38 12.33 9.18 12.33L9.18 12.33L9.18 12.33Q9.00 12.33 8.88 12.21L8.88 12.21L8.88 12.21Q8.76 12.10 8.76 11.91L8.76 11.91L8.76 1.82L8.76 1.82Q8.76 1.62 8.88 1.51L8.88 1.51L8.88 1.51Q9.00 1.40 9.18 1.40L9.18 1.40L9.18 1.40Q9.38 1.40 9.49 1.51L9.49 1.51L9.49 1.51Q9.60 1.62 9.60 1.82L9.60 1.82L9.60 5.82L9.60 5.82Q10.08 5.24 10.77 4.91L10.77 4.91L10.77 4.91Q11.45 4.58 12.26 4.58L12.26 4.58ZM21.69 4.59L21.69 4.59Q22.78 4.59 23.67 5.10L23.67 5.10L23.67 5.10Q24.57 5.61 25.08 6.51L25.08 6.51L25.08 6.51Q25.59 7.41 25.59 8.51L25.59 8.51L25.59 11.91L25.59 11.91Q25.59 12.10 25.48 12.21L25.48 12.21L25.48 12.21Q25.37 12.33 25.17 12.33L25.17 12.33L25.17 12.33Q24.99 12.33 24.87 12.21L24.87 12.21L24.87 12.21Q24.75 12.10 24.75 11.91L24.75 11.91L24.75 10.82L24.75 10.82Q24.29 11.56 23.49 11.99L23.49 11.99L23.49 11.99Q22.68 12.42 21.69 12.42L21.69 12.42L21.69 12.42Q20.58 12.42 19.68 11.91L19.68 11.91L19.68 11.91Q18.79 11.40 18.28 10.50L18.28 10.50L18.28 10.50Q17.77 9.60 17.77 8.51L17.77 8.51L17.77 8.51Q17.77 7.41 18.28 6.51L18.28 6.51L18.28 6.51Q18.79 5.61 19.68 5.10L19.68 5.10L19.68 5.10Q20.58 4.59 21.69 4.59L21.69 4.59ZM21.69 11.63L21.69 11.63Q22.55 11.63 23.25 11.23L23.25 11.23L23.25 11.23Q23.95 10.82 24.35 10.11L24.35 10.11L24.35 10.11Q24.75 9.39 24.75 8.51L24.75 8.51L24.75 8.51Q24.75 7.63 24.35 6.92L24.35 6.92L24.35 6.92Q23.95 6.20 23.25 5.79L23.25 5.79L23.25 5.79Q22.55 5.38 21.69 5.38L21.69 5.38L21.69 5.38Q20.82 5.38 20.12 5.79L20.12 5.79L20.12 5.79Q19.42 6.20 19.01 6.92L19.01 6.92L19.01 6.92Q18.61 7.63 18.61 8.51L18.61 8.51L18.61 8.51Q18.61 9.39 19.01 10.11L19.01 10.11L19.01 10.11Q19.42 10.82 20.12 11.23L20.12 11.23L20.12 11.23Q20.82 11.63 21.69 11.63L21.69 11.63ZM34.68 1.40L34.68 1.40Q34.87 1.40 34.99 1.51L34.99 1.51L34.99 1.51Q35.10 1.62 35.10 1.82L35.10 1.82L35.10 8.55L35.10 8.58L35.10 8.58Q35.08 9.66 34.57 10.54L34.57 10.54L34.57 10.54Q34.05 11.42 33.16 11.92L33.16 11.92L33.16 11.92Q32.27 12.42 31.19 12.42L31.19 12.42L31.19 12.42Q30.09 12.42 29.19 11.91L29.19 11.91L29.19 11.91Q28.29 11.40 27.78 10.50L27.78 10.50L27.78 10.50Q27.27 9.60 27.27 8.50L27.27 8.50L27.27 8.50Q27.27 7.41 27.78 6.51L27.78 6.51L27.78 6.51Q28.29 5.61 29.19 5.10L29.19 5.10L29.19 5.10Q30.09 4.59 31.19 4.59L31.19 4.59L31.19 4.59Q32.19 4.59 32.99 5.02L32.99 5.02L32.99 5.02Q33.80 5.45 34.26 6.19L34.26 6.19L34.26 1.82L34.26 1.82Q34.26 1.62 34.38 1.51L34.38 1.51L34.38 1.51Q34.50 1.40 34.68 1.40L34.68 1.40ZM31.19 11.63L31.19 11.63Q32.06 11.63 32.76 11.22L32.76 11.22L32.76 11.22Q33.46 10.81 33.86 10.09L33.86 10.09L33.86 10.09Q34.26 9.38 34.26 8.50L34.26 8.50L34.26 8.50Q34.26 7.62 33.86 6.90L33.86 6.90L33.86 6.90Q33.46 6.19 32.76 5.78L32.76 5.78L32.76 5.78Q32.06 5.38 31.19 5.38L31.19 5.38L31.19 5.38Q30.32 5.38 29.62 5.78L29.62 5.78L29.62 5.78Q28.92 6.19 28.52 6.90L28.52 6.90L28.52 6.90Q28.11 7.62 28.11 8.50L28.11 8.50L28.11 8.50Q28.11 9.38 28.52 10.09L28.52 10.09L28.52 10.09Q28.92 10.81 29.62 11.22L29.62 11.22L29.62 11.22Q30.32 11.63 31.19 11.63L31.19 11.63ZM41.12 4.59L41.12 4.59Q42.21 4.59 43.11 5.10L43.11 5.10L43.11 5.10Q44.00 5.61 44.51 6.51L44.51 6.51L44.51 6.51Q45.02 7.41 45.02 8.51L45.02 8.51L45.02 8.51Q45.02 9.60 44.51 10.50L44.51 10.50L44.51 10.50Q44.00 11.40 43.11 11.91L43.11 11.91L43.11 11.91Q42.21 12.42 41.12 12.42L41.12 12.42L41.12 12.42Q40.01 12.42 39.12 11.91L39.12 11.91L39.12 11.91Q38.22 11.40 37.71 10.50L37.71 10.50L37.71 10.50Q37.20 9.60 37.20 8.51L37.20 8.51L37.20 8.51Q37.20 7.41 37.71 6.51L37.71 6.51L37.71 6.51Q38.22 5.61 39.12 5.10L39.12 5.10L39.12 5.10Q40.01 4.59 41.12 4.59L41.12 4.59ZM41.12 5.38L41.12 5.38Q40.25 5.38 39.55 5.79L39.55 5.79L39.55 5.79Q38.85 6.20 38.44 6.92L38.44 6.92L38.44 6.92Q38.04 7.63 38.04 8.51L38.04 8.51L38.04 8.51Q38.04 9.39 38.44 10.11L38.44 10.11L38.44 10.11Q38.85 10.82 39.55 11.23L39.55 11.23L39.55 11.23Q40.25 11.63 41.12 11.63L41.12 11.63L41.12 11.63Q41.99 11.63 42.69 11.23L42.69 11.23L42.69 11.23Q43.39 10.82 43.79 10.11L43.79 10.11L43.79 10.11Q44.18 9.39 44.18 8.51L44.18 8.51L44.18 8.51Q44.18 7.63 43.79 6.92L43.79 6.92L43.79 6.92Q43.39 6.20 42.69 5.79L42.69 5.79L42.69 5.79Q41.99 5.38 41.12 5.38L41.12 5.38ZM55.69 4.68L55.69 4.68Q55.87 4.68 55.97 4.79L55.97 4.79L55.97 4.79Q56.07 4.90 56.07 5.07L56.07 5.07L56.07 5.07Q56.07 5.17 56.03 5.28L56.03 5.28L53.77 12.07L53.77 12.07Q53.73 12.19 53.63 12.26L53.63 12.26L53.63 12.26Q53.52 12.33 53.37 12.33L53.37 12.33L53.37 12.33Q53.23 12.33 53.12 12.26L53.12 12.26L53.12 12.26Q53.00 12.19 52.98 12.07L52.98 12.07L51.07 6.15L49.22 12.07L49.22 12.07Q49.13 12.33 48.83 12.33L48.83 12.33L48.83 12.33Q48.69 12.33 48.59 12.26L48.59 12.26L48.59 12.26Q48.48 12.19 48.44 12.07L48.44 12.07L46.17 5.28L46.17 5.28Q46.14 5.11 46.14 5.05L46.14 5.05L46.14 5.05Q46.14 4.68 46.49 4.68L46.49 4.68L46.49 4.68Q46.62 4.68 46.73 4.74L46.73 4.74L46.73 4.74Q46.83 4.80 46.89 4.93L46.89 4.93L48.86 10.89L50.68 5.01L50.68 5.01Q50.72 4.86 50.83 4.77L50.83 4.77L50.83 4.77Q50.95 4.68 51.10 4.68L51.10 4.68L51.10 4.68Q51.41 4.68 51.52 5.01L51.52 5.01L53.35 10.78L55.30 4.93L55.30 4.93Q55.41 4.68 55.69 4.68L55.69 4.68ZM57.33 1.82L57.33 1.82Q57.33 1.62 57.45 1.51L57.45 1.51L57.45 1.51Q57.57 1.40 57.75 1.40L57.75 1.40L57.75 1.40Q57.95 1.40 58.06 1.51L58.06 1.51L58.06 1.51Q58.17 1.62 58.17 1.82L58.17 1.82L58.17 10.02L58.17 10.02Q58.17 10.67 58.44 11.08L58.44 11.08L58.44 11.08Q58.72 11.49 59.15 11.49L59.15 11.49L59.50 11.49L59.50 11.49Q59.65 11.49 59.75 11.61L59.75 11.61L59.75 11.61Q59.85 11.72 59.85 11.91L59.85 11.91L59.85 11.91Q59.85 12.10 59.74 12.21L59.74 12.21L59.74 12.21Q59.63 12.33 59.43 12.33L59.43 12.33L59.15 12.33L59.15 12.33Q58.35 12.33 57.84 11.69L57.84 11.69L57.84 11.69Q57.33 11.05 57.33 10.02L57.33 10.02L57.33 1.82ZM61.67 5.10L61.67 5.10Q61.67 4.90 61.79 4.79L61.79 4.79L61.79 4.79Q61.91 4.68 62.09 4.68L62.09 4.68L62.09 4.68Q62.29 4.68 62.40 4.79L62.40 4.79L62.40 4.79Q62.51 4.90 62.51 5.10L62.51 5.10L62.51 11.91L62.51 11.91Q62.51 12.10 62.40 12.21L62.40 12.21L62.40 12.21Q62.29 12.33 62.09 12.33L62.09 12.33L62.09 12.33Q61.91 12.33 61.79 12.21L61.79 12.21L61.79 12.21Q61.67 12.10 61.67 11.91L61.67 11.91L61.67 5.10ZM62.09 1.76L62.09 1.76Q62.36 1.76 62.55 1.93L62.55 1.93L62.55 1.93Q62.73 2.10 62.73 2.41L62.73 2.41L62.73 2.41Q62.73 2.69 62.55 2.88L62.55 2.88L62.55 2.88Q62.36 3.07 62.08 3.07L62.08 3.07L62.08 3.07Q61.80 3.07 61.61 2.88L61.61 2.88L61.61 2.88Q61.43 2.69 61.43 2.41L61.43 2.41L61.43 2.41Q61.43 2.10 61.63 1.93L61.63 1.93L61.63 1.93Q61.82 1.76 62.09 1.76L62.09 1.76ZM68.81 4.58L68.81 4.58Q69.83 4.58 70.64 5.00L70.64 5.00L70.64 5.00Q71.44 5.42 71.90 6.22L71.90 6.22L71.90 6.22Q72.35 7.03 72.35 8.15L72.35 8.15L72.35 11.91L72.35 11.91Q72.35 12.10 72.23 12.21L72.23 12.21L72.23 12.21Q72.11 12.33 71.93 12.33L71.93 12.33L71.93 12.33Q71.75 12.33 71.63 12.21L71.63 12.21L71.63 12.21Q71.51 12.10 71.51 11.91L71.51 11.91L71.51 8.15L71.51 8.15Q71.51 6.82 70.76 6.12L70.76 6.12L70.76 6.12Q70.01 5.42 68.81 5.42L68.81 5.42L68.81 5.42Q68.07 5.42 67.46 5.70L67.46 5.70L67.46 5.70Q66.85 5.99 66.50 6.50L66.50 6.50L66.50 6.50Q66.15 7.01 66.15 7.63L66.15 7.63L66.15 11.91L66.15 11.91Q66.15 12.10 66.04 12.21L66.04 12.21L66.04 12.21Q65.93 12.33 65.73 12.33L65.73 12.33L65.73 12.33Q65.55 12.33 65.43 12.21L65.43 12.21L65.43 12.21Q65.31 12.10 65.31 11.91L65.31 11.91L65.31 5.10L65.31 5.10Q65.31 4.90 65.43 4.79L65.43 4.79L65.43 4.79Q65.55 4.68 65.73 4.68L65.73 4.68L65.73 4.68Q65.93 4.68 66.04 4.79L66.04 4.79L66.04 4.79Q66.15 4.90 66.15 5.10L66.15 5.10L66.15 5.82L66.15 5.82Q66.63 5.24 67.31 4.91L67.31 4.91L67.31 4.91Q68.00 4.58 68.81 4.58L68.81 4.58ZM78.23 4.59L78.23 4.59Q79.37 4.59 80.26 5.10L80.26 5.10L80.26 5.10Q81.14 5.60 81.64 6.49L81.64 6.49L81.64 6.49Q82.14 7.38 82.14 8.51L82.14 8.51L82.14 11.26L82.14 11.26Q82.14 12.38 81.63 13.29L81.63 13.29L81.63 13.29Q81.13 14.21 80.25 14.73L80.25 14.73L80.25 14.73Q79.37 15.26 78.29 15.26L78.29 15.26L78.29 15.26Q77.18 15.26 76.35 14.85L76.35 14.85L76.35 14.85Q75.52 14.43 74.96 13.72L74.96 13.72L74.96 13.72Q74.84 13.58 74.84 13.44L74.84 13.44L74.84 13.44Q74.84 13.27 74.98 13.17L74.98 13.17L74.98 13.17Q75.10 13.09 75.24 13.09L75.24 13.09L75.24 13.09Q75.46 13.09 75.60 13.27L75.60 13.27L75.60 13.27Q76.06 13.83 76.74 14.15L76.74 14.15L76.74 14.15Q77.42 14.48 78.29 14.48L78.29 14.48L78.29 14.48Q79.14 14.48 79.83 14.06L79.83 14.06L79.83 14.06Q80.51 13.64 80.91 12.90L80.91 12.90L80.91 12.90Q81.30 12.17 81.30 11.26L81.30 11.26L81.30 10.64L81.30 10.64Q80.89 11.47 80.09 11.94L80.09 11.94L80.09 11.94Q79.28 12.42 78.23 12.42L78.23 12.42L78.23 12.42Q77.10 12.42 76.21 11.92L76.21 11.92L76.21 11.92Q75.32 11.42 74.82 10.54L74.82 10.54L74.82 10.54Q74.31 9.65 74.31 8.51L74.31 8.51L74.31 8.51Q74.31 7.39 74.83 6.50L74.83 6.50L74.83 6.50Q75.35 5.60 76.24 5.10L76.24 5.10L76.24 5.10Q77.14 4.59 78.23 4.59L78.23 4.59ZM78.23 11.63L78.23 11.63Q79.11 11.63 79.81 11.23L79.81 11.23L79.81 11.23Q80.51 10.84 80.91 10.13L80.91 10.13L80.91 10.13Q81.30 9.42 81.30 8.51L81.30 8.51L81.30 8.51Q81.30 7.60 80.91 6.89L80.91 6.89L80.91 6.89Q80.51 6.17 79.81 5.77L79.81 5.77L79.81 5.77Q79.11 5.38 78.23 5.38L78.23 5.38L78.23 5.38Q77.34 5.38 76.64 5.77L76.64 5.77L76.64 5.77Q75.94 6.17 75.54 6.89L75.54 6.89L75.54 6.89Q75.15 7.60 75.15 8.51L75.15 8.51L75.15 8.51Q75.15 9.42 75.54 10.13L75.54 10.13L75.54 10.13Q75.94 10.84 76.64 11.23L76.64 11.23L76.64 11.23Q77.34 11.63 78.23 11.63L78.23 11.63ZM86.86 4.59L86.86 4.59Q88.62 4.59 89.53 5.85L89.53 5.85L89.53 5.85Q89.61 5.95 89.61 6.09L89.61 6.09L89.61 6.09Q89.61 6.29 89.39 6.41L89.39 6.41L89.39 6.41Q89.25 6.47 89.18 6.47L89.18 6.47L89.18 6.47Q88.97 6.47 88.83 6.29L88.83 6.29L88.83 6.29Q88.12 5.38 86.83 5.38L86.83 5.38L86.83 5.38Q85.97 5.38 85.47 5.75L85.47 5.75L85.47 5.75Q84.97 6.12 84.97 6.66L84.97 6.66L84.97 6.66Q84.97 7.22 85.45 7.56L85.45 7.56L85.45 7.56Q85.93 7.90 87.07 8.06L87.07 8.06L87.07 8.06Q88.55 8.27 89.20 8.86L89.20 8.86L89.20 8.86Q89.85 9.44 89.85 10.26L89.85 10.26L89.85 10.26Q89.85 10.91 89.44 11.40L89.44 11.40L89.44 11.40Q89.03 11.89 88.34 12.15L88.34 12.15L88.34 12.15Q87.65 12.42 86.84 12.42L86.84 12.42L86.84 12.42Q86.03 12.42 85.26 12.13L85.26 12.13L85.26 12.13Q84.49 11.84 83.99 11.26L83.99 11.26L83.99 11.26Q83.89 11.14 83.89 11.00L83.89 11.00L83.89 11.00Q83.89 10.81 84.07 10.68L84.07 10.68L84.07 10.68Q84.15 10.61 84.31 10.61L84.31 10.61L84.31 10.61Q84.50 10.61 84.63 10.77L84.63 10.77L84.63 10.77Q85.33 11.62 86.88 11.62L86.88 11.62L86.88 11.62Q87.99 11.62 88.52 11.23L88.52 11.23L88.52 11.23Q89.04 10.84 89.04 10.22L89.04 10.22L89.04 10.22Q89.04 9.11 86.90 8.81L86.90 8.81L86.90 8.81Q85.54 8.61 84.85 8.06L84.85 8.06L84.85 8.06Q84.15 7.52 84.15 6.75L84.15 6.75L84.15 6.75Q84.15 5.73 84.90 5.16L84.90 5.16L84.90 5.16Q85.65 4.59 86.86 4.59L86.86 4.59Z"/></g><defs data-v-fde0c5aa=""><linearGradient data-v-fde0c5aa="" gradientTransform="rotate(25)" id="475a6167-1acd-4b1a-a2da-5f5a70b69f1f" x1="0%" y1="0%" x2="100%" y2="0%"><stop data-v-fde0c5aa="" offset="0%" stop-color="#FCFBFF" stop-opacity="1"/><stop data-v-fde0c5aa="" offset="100%" stop-color="#00486E" stop-opacity="1"/></linearGradient></defs><g data-v-fde0c5aa="" id="ca5f71e6-42bf-41fc-b6b3-6bae73bb4553" stroke="none" fill="url(#475a6167-1acd-4b1a-a2da-5f5a70b69f1f)" transform="matrix(0.41244608073331407,0,0,0.41244608073331407,34.65469877796268,129.3776959633343)"><path d="M50 0C24.563 0 12.96 50.003 12.96 66.604 12.959 85.05 29.541 100 50 100s37.042-14.95 37.042-33.396C87.041 52.016 74.159 0 50 0zM39.488 34.323c-3.556 0-6.437-1.577-6.437-3.521s2.881-3.52 6.437-3.52c3.561 0 6.446 1.576 6.446 3.52s-2.886 3.521-6.446 3.521zm21.025 0c-3.561 0-6.447-1.577-6.447-3.521s2.887-3.52 6.447-3.52c3.555 0 6.44 1.576 6.44 3.52s-2.886 3.521-6.44 3.521z"/></g><!----></svg>